# xmcd
# 
# Track frame offsets:
#     150
#     19590
#     43180
#     61220
#     81680
#     108489
#     129248
#     145631
#     158392
#     175126
#     202532
#     218912
#     238369
#     261859
#     293578
#     309364
#     332262
# 
# Disc length: 4666
# 
# Revision: 3
# Processed by: cddbd v1.5.2PL0 Copyright (c) Steve Scherf et al.
# Submitted via: fre:ac v1.0.17
# 
DISCID=e2123811
DTITLE=Popa Chubby - Ten Years with Popa Chubby Best Of [CD 1 Studio) [CD1)
DYEAR=2005
DGENRE=Blues Rock
TTITLE0=Angel On My Shoulder
TTITLE1=Real Thing
TTITLE2=Laya What Ya Tryin´To Do
TTITLE3=Shakedown
TTITLE4=She Said That Evil Was Her Name
TTITLE5=Black Hearted Woman
TTITLE6=Daddy Played The Guitar (And Mama Was A Disco Queen)
TTITLE7=How´d A White Boy Get The Blues
TTITLE8=And The Beat Goes On
TTITLE9=Messin´With The Kid
TTITLE10=I Can´t See The Light Of Day
TTITLE11=Somebody Let The Devil Out
TTITLE12=I´ll Be There For You
TTITLE13=I Can´t Quit You Baby
TTITLE14=Top Ten Reasons Why I Can´t Sleep At Night
TTITLE15=Young Men
TTITLE16=A Chaque Jour Suffit Sa Peine (Bonus)
EXTD=
EXTT0=
EXTT1=
EXTT2=
EXTT3=
EXTT4=
EXTT5=
EXTT6=
EXTT7=
EXTT8=
EXTT9=
EXTT10=
EXTT11=
EXTT12=
EXTT13=
EXTT14=
EXTT15=
EXTT16=
PLAYORDER=
